Format                           : MPEG-TS
File size                        : 1.13 GiB
Duration                         : 4mn 6s
Overall bit rate mode            : Variable
Overall bit rate                 : 39.5 Mbps

Video
ID                               : 4096 (0x1000)
Menu ID                          : 1 (0x1)
Format                           : MPEG Video
Format version                   : Version 2
Format profile                   : Main@High
Format settings, BVOP            : Yes
Format settings, Matrix          : Custom
Codec ID                         : 2
Duration                         : 4mn 6s
Bit rate mode                    : Variable
Bit rate                         : 37.1 Mbps
Maximum bit rate                 : 38.2 Mbps
Width                            : 1 920 pixels
Height                           : 1 080 pixels
Display aspect ratio             : 16:9
Frame rate                       : 25.000 fps
Color space                      : YUV
Chroma subsampling               : 4:2:0
Bit depth                        : 8 bits
Scan type                        : Interlaced
Scan order                       : Top Field First
Compression mode                 : Lossy
Bits/(Pixel*Frame)               : 0.716
Stream size                      : 1.06 GiB (94%)
Writing library                  : (c)2004 Saar Software

Audio
ID                               : 4097 (0x1001)
Menu ID                          : 1 (0x1)
Format                           : MPEG Audio
Format version                   : Version 1
Format profile                   : Layer 2
Codec ID                         : 3
Duration                         : 4mn 6s
Bit rate mode                    : Constant
Bit rate                         : 384 Kbps
Channel(s)                       : 2 channels
Sampling rate                    : 48.0 KHz
Compression mode                 : Lossy
Stream size                      : 11.3 MiB (1%)
